# xmcd
#
# Track frame offsets: 
#        150
#        13747
#        27346
#        41465
#        53411
#        66119
#        80988
#        95441
#        111020
#        125263
#        136140
#
# Disc length: 2017 seconds
#
# Revision: 1
# Processed by: cddbd v1.5.2PL0 Copyright (c) Steve Scherf et al.
# Submitted via: ExactAudioCopy v0.95b4
#
DISCID=8907df0b
DTITLE=Frank Sinatra - POPS SERIES 6
DYEAR=2001
DGENRE=Jazz
TTITLE0=One For My Baby
TTITLE1=I Should Care
TTITLE2=These Foolish Things
TTITLE3=I Guess I'll have To Dream The Best
TTITLE4=When Your Lover Has Gone
TTITLE5=Body And Soul
TTITLE6=That Old Feeling
TTITLE7=There's No You
TTITLE8=Sweet Lorraine
TTITLE9=Should I
TTITLE10=Embraceable You
EXTD=YEAR: 2001
EXTT0=
EXTT1=
EXTT2=
EXTT3=
EXTT4=
EXTT5=
EXTT6=
EXTT7=
EXTT8=
EXTT9=
EXTT10=
PLAYORDER=
